<svg xmlns="http://www.w3.org/2000/svg" width="600" height="440" viewBox="0 0 600 440" role="img" aria-labelledby="title desc">
<title id="title">From fragments to structure</title><desc id="desc">Scattered concepts connected into a coherent lattice, representing abstraction and constraints.</desc>
<rect width="600" height="440" fill="#18211b"/>
<g fill="none" stroke="#506859"><circle cx="320" cy="220" r="165"/><circle cx="320" cy="220" r="125"/><ellipse cx="320" cy="220" rx="80" ry="165"/><path d="M155 220h330M190 117l260 206M190 323l260-206M320 55v330"/><path d="M55 90 205 145M72 300l133-5M100 210l105-65M100 210l105 85M205 145l115-65M205 295l115 65" stroke-dasharray="3 8"/></g>
<g stroke="#bdd6c4" stroke-width="2" fill="#20352a"><path d="m320 100 104 60v120l-104 60-104-60V160Z"/><path d="m216 160 104 60 104-60M320 220v120M320 100v120M216 280l104-60 104 60" fill="none"/></g>
<g fill="#d5e9d9"><circle cx="320" cy="100" r="5"/><circle cx="216" cy="160" r="5"/><circle cx="424" cy="160" r="5"/><circle cx="320" cy="220" r="7"/><circle cx="216" cy="280" r="5"/><circle cx="424" cy="280" r="5"/><circle cx="320" cy="340" r="5"/></g><g fill="#8faa96"><rect x="48" y="83" width="14" height="14"/><circle cx="100" cy="210" r="7"/><path d="m72 291 9 16H63Z"/></g></svg>
